<svg width="65" height="65" viewBox="0 0 65 65" fill="none" xmlns="http://www.w3.org/2000/svg">
<g clip-path="url(#clip0_8_187)">
<path d="M32.5 0C50.4679 0 65 14.5321 65 32.5C65 50.4679 50.4679 65 32.5 65C14.5321 65 0 50.4679 0 32.5C0 14.5321 14.5321 0 32.5 0ZM26.5571 49.6321C40.95 49.6321 48.8429 37.7 48.8429 27.3464V26.325C50.375 25.2107 51.7214 23.8179 52.7429 22.2393C51.35 22.8429 49.8179 23.2607 48.2393 23.4929C49.8643 22.5179 51.1179 20.9857 51.675 19.175C50.1429 20.0571 48.4714 20.7071 46.7071 21.0786C45.2679 19.5464 43.225 18.6179 40.9964 18.6179C36.6786 18.6179 33.15 22.1464 33.15 26.4643C33.15 27.0679 33.1964 27.6714 33.3821 28.2286C26.8821 27.9036 21.0786 24.7929 17.225 20.0571C16.575 21.2179 16.1571 22.5643 16.1571 24.0036C16.1571 26.6964 17.55 29.1107 19.6393 30.5036C18.3393 30.5036 17.1321 30.1321 16.1107 29.5286V29.6214C16.1107 33.4286 18.8036 36.5857 22.3786 37.3286C21.7286 37.5143 21.0321 37.6071 20.3357 37.6071C19.825 37.6071 19.3607 37.5607 18.85 37.4679C19.825 40.5786 22.75 42.8536 26.1393 42.9C23.4464 44.9893 20.0571 46.2429 16.3893 46.2429C15.7393 46.2429 15.1357 46.2429 14.5321 46.15C17.9679 48.3786 22.1 49.6786 26.5107 49.6786" fill="white"/>
</g>
<defs>
<clipPath id="clip0_8_187">
<rect width="65" height="65" fill="white"/>
</clipPath>
</defs>
</svg>
