<svg width="65" height="65" viewBox="0 0 65 65" fill="none" xmlns="http://www.w3.org/2000/svg">
<path d="M37.9268 31.9346L30.3232 28.3867C29.6596 28.0786 29.1146 28.424 29.1146 29.1586V35.8414C29.1146 36.576 29.6596 36.9214 30.3232 36.6133L37.9234 33.0654C38.5904 32.7539 38.5904 32.2461 37.9268 31.9346ZM32.5 0C14.5505 0 0 14.5505 0 32.5C0 50.4495 14.5505 65 32.5 65C50.4495 65 65 50.4495 65 32.5C65 14.5505 50.4495 0 32.5 0ZM32.5 45.7031C15.8641 45.7031 15.5729 44.2034 15.5729 32.5C15.5729 20.7966 15.8641 19.2969 32.5 19.2969C49.1359 19.2969 49.4271 20.7966 49.4271 32.5C49.4271 44.2034 49.1359 45.7031 32.5 45.7031Z" fill="white"/>
</svg>
